<?xml version="1.0" encoding="UTF-8"?>
<svg preserveAspectRatio="xMidYMid" viewBox="147.8 66.36 178.59 91.022" xmlns="http://www.w3.org/2000/svg" xmlns:cc="http://creativecommons.org/ns#" xmlns:dc="http://purl.org/dc/elements/1.1/" xmlns:rdf="http://www.w3.org/1999/02/22-rdf-syntax-ns#">
  <clipPath id="a">
    <rect x=".3" y=".3" width="539.4" height="719.15"/>
  </clipPath>
  <g clip-path="url(#a)" transform="translate(.52 -.0276)">
    <path d="M266.3 120.21q0-1.604.86-2.51.863-.91 2.225-.91.892 0 1.608.428.717.426 1.09 1.19.378.76.378 1.728 0 .98-.39 1.753-.39.77-1.12 1.17-.72.39-1.56.39-.91 0-1.62-.44-.717-.44-1.086-1.2-.37-.76-.37-1.61zm.88.013q0 1.165.623 1.837.628.668 1.573.668.963 0 1.582-.676.624-.677.624-1.92 0-.787-.268-1.372-.263-.59-.778-.91-.51-.325-1.147-.325-.91 0-1.56.624-.65.62-.65 2.07z"/>
    <path d="M255.39 127.14l-.46-.11.3-.48 9.61-4.8.14.27.13.27zm18.3-4.8l.13-.27.14-.27 9.46 4.74.3.49-.46.11z" fill-rule="evenodd" shape-rendering="geometricPrecision" stroke-width="0"/>
    <path d="M252.85 156.3v-6.442h.852v2.645h3.35v-2.645h.85v6.442h-.85v-3.037h-3.35v3.037zm6.22-3.14q0-1.604.86-2.51.863-.91 2.225-.91.892 0 1.608.428.717.426 1.09 1.19.378.76.378 1.728 0 .98-.39 1.753-.39.77-1.12 1.17-.72.39-1.56.39-.91 0-1.62-.44-.717-.44-1.086-1.2-.37-.76-.37-1.61zm.88.013q0 1.165.623 1.837.628.668 1.573.668.963 0 1.582-.676.624-.677.624-1.92 0-.787-.268-1.372-.264-.59-.778-.91-.51-.325-1.147-.325-.91 0-1.56.624-.65.62-.65 2.07zm13.51-.013q0-1.604.86-2.51.863-.91 2.225-.91.892 0 1.608.428.717.426 1.09 1.19.378.76.378 1.728 0 .98-.39 1.753-.39.77-1.12 1.17-.72.39-1.56.39-.91 0-1.62-.44-.717-.44-1.086-1.2-.37-.76-.37-1.61zm.88.013q0 1.165.623 1.837.628.668 1.573.668.963 0 1.582-.676.624-.677.624-1.92 0-.787-.268-1.372-.263-.59-.778-.91-.51-.325-1.147-.325-.91 0-1.56.624-.65.62-.65 2.07zm6.4 3.127v-6.442h.852v2.645h3.35v-2.645h.85v6.442h-.85v-3.037h-3.35v3.037zm.42-42.02v-6.442h.874l3.384 5.058v-5.058h.817v6.442h-.874l-3.38-5.063v5.063z"/>
    <path d="M284.02 127.1l-.3-.07-.3-.49v-10.65h.6zm-28.79-.55l-.3.48-.3.07v-14.3l.6-.34z" fill-rule="evenodd" shape-rendering="geometricPrecision" stroke-width="0"/>
    <path d="M239.38 105.81q0-1.604.86-2.51.863-.91 2.225-.91.892 0 1.608.428.717.426 1.09 1.19.378.76.378 1.728 0 .98-.39 1.753-.39.77-1.12 1.17-.72.39-1.56.39-.91 0-1.62-.44-.717-.44-1.086-1.2-.37-.76-.37-1.61zm.88.013q0 1.165.623 1.837.628.668 1.573.668.963 0 1.582-.676.624-.677.624-1.92 0-.787-.268-1.372-.263-.59-.778-.91-.51-.325-1.147-.325-.91 0-1.56.624-.65.62-.65 2.07z"/>
    <path d="M255.23 112.46l-.6.34-7.9-4.56.3-.52z" fill-rule="evenodd" shape-rendering="geometricPrecision" stroke-width="0"/>
    <path d="M225.74 108.95v-6.442h2.43q.642 0 .98.06.475.08.796.304.32.22.514.62.198.4.198.88 0 .82-.523 1.392-.523.567-1.89.567h-1.652v2.62zm.853-3.38h1.665q.827 0 1.174-.307t.347-.866q0-.404-.21-.69-.2-.29-.54-.382-.22-.057-.8-.057h-1.65z"/>
    <path d="M237.81 105.13v.6h-5.72v-.6z" fill-rule="evenodd" shape-rendering="geometricPrecision" stroke-width="0"/>
    <path d="M224.98 91.412q0-1.604.86-2.51.863-.91 2.225-.91.892 0 1.608.427.717.42 1.09 1.19.378.76.378 1.72 0 .98-.39 1.75t-1.12 1.17q-.72.396-1.56.396-.91 0-1.62-.44-.717-.44-1.086-1.2-.37-.76-.37-1.61zm.88.013q0 1.165.623 1.837.628.668 1.573.668.963 0 1.582-.677.624-.676.624-1.92 0-.787-.268-1.37-.263-.59-.778-.91-.51-.326-1.147-.326-.91 0-1.56.624-.65.62-.65 2.08z"/>
    <path d="M228.97 101.01h.6v-4.72h-.6zm-2.44 0h.6v-4.72h-.6z" fill-rule="evenodd" shape-rendering="geometricPrecision" stroke-width="0"/>
    <path d="M224.98 120.21q0-1.604.86-2.51.863-.91 2.225-.91.892 0 1.608.428.717.426 1.09 1.19.378.76.378 1.728 0 .98-.39 1.753-.39.77-1.12 1.17-.72.39-1.56.39-.91 0-1.62-.44-.717-.44-1.086-1.2-.37-.76-.37-1.61zm.88.013q0 1.165.623 1.837.628.668 1.573.668.963 0 1.582-.676.624-.677.624-1.92 0-.787-.268-1.372-.263-.59-.778-.91-.51-.325-1.147-.325-.91 0-1.56.624-.65.62-.65 2.07z"/>
    <path d="M227.75 110.59h.6v4.62h-.6z" fill-rule="evenodd" shape-rendering="geometricPrecision" stroke-width="0"/>
    <path d="M210.58 105.81q0-1.604.86-2.51.863-.91 2.225-.91.892 0 1.608.428.717.426 1.09 1.19.378.76.378 1.728 0 .98-.39 1.753-.39.77-1.12 1.17-.72.39-1.56.39-.91 0-1.62-.44-.717-.44-1.086-1.2-.37-.76-.37-1.61zm.88.013q0 1.165.623 1.837.628.668 1.573.668.963 0 1.582-.676.624-.677.624-1.92 0-.787-.268-1.372-.263-.59-.778-.91-.51-.325-1.147-.325-.91 0-1.56.624-.65.62-.65 2.07z"/>
    <path d="M224.21 105.13v.6h-5.82v-.6z" fill-rule="evenodd" shape-rendering="geometricPrecision" stroke-width="0"/>
    <path d="M231.9 118.13h3.6m-87.22-14.83h3.6" stroke="#000" stroke-width=".48"/>
    <path d="M281.16 90.98v-6.442h.874l3.384 5.058v-5.058h.817v6.442h-.874l-3.38-5.063v5.063z"/>
    <path d="M287.9 109.71l-.09-.29-.09-.28 9.4-3.06.3.22-.03.33z" fill-rule="evenodd" shape-rendering="geometricPrecision" stroke-width="0"/>
    <path d="M297.72 106.13l-.3.17-.3-.22V92.12l.3-.22.3.17z" fill-rule="evenodd" shape-rendering="geometricPrecision" stroke-width="0"/>
    <path d="M300.01 104.8V93.4" stroke="#000" stroke-width=".6"/>
    <path d="M297.39 91.57l.03.33-.3.22-9.39-3.05.09-.29.09-.28zm-17.37.47l.24.17.24.18-4.87 6.71h-.74z" fill-rule="evenodd" shape-rendering="geometricPrecision" stroke-width="0"/>
    <path d="M282.21 93.66l-4.03 5.54" stroke="#000" stroke-width=".6"/>
    <path d="M274.89 99.1h.74l5.33 7.34-.24.17-.25.18z" fill-rule="evenodd" shape-rendering="geometricPrecision" stroke-width="0"/>
    <path d="M307.33 117.03v-6.442h.874l3.384 5.058v-5.058h.817v6.442h-.874l-3.38-5.063v5.063zm12.47-21.6v-6.442h.874l3.384 5.058v-5.058h.817v6.442H324l-3.383-5.063v5.063z"/>
    <path d="M297.39 106.63l.03-.33.3-.17 8.44 4.87-.3.52zm16.55 4.88l-.3-.52 8.42-4.86.6.34z" fill-rule="evenodd" shape-rendering="geometricPrecision" stroke-width="0"/>
    <path d="M312.58 109.21l7.56-4.37" stroke="#000" stroke-width=".6"/>
    <path d="M322.66 106.47l-.6-.34V97.1h.6zm-4.1-17.11l-.3.52-8.37-4.83v-.35l.3-.17z" fill-rule="evenodd" shape-rendering="geometricPrecision" stroke-width="0"/>
    <path d="M317.21 91.66l-7.52-4.34" stroke="#000" stroke-width=".6"/>
    <path d="M309.59 84.53l.3.17v.35l-12.17 7.02-.3-.17-.03-.33z" fill-rule="evenodd" shape-rendering="geometricPrecision" stroke-width="0"/>
    <path d="M307.33 73.83v-6.442h.874l3.384 5.058v-5.058h.817v6.442h-.874l-3.38-5.063v5.063zm6.53 0v-6.442h.852v2.645h3.35v-2.645h.85v6.442h-.85v-3.037h-3.35v3.037zm9.19 1.47v.57h-3.194q-.006-.214.07-.412.12-.326.388-.643.27-.316.778-.73.788-.647 1.065-1.023.277-.38.277-.715 0-.353-.254-.593-.25-.244-.656-.244-.43 0-.686.257t-.26.712l-.61-.07q.063-.68.472-1.04.408-.36 1.097-.36.696 0 1.1.38.406.386.406.956 0 .29-.118.57-.12.28-.396.59-.28.31-.92.85-.54.45-.69.61-.15.157-.25.32z"/>
    <path d="M310.19 84.53l-.3.17-.3-.17V77.1h.6z" fill-rule="evenodd" shape-rendering="geometricPrecision" stroke-width="0"/>
    <path d="M196.94 108.95v-6.442h2.43q.642 0 .98.06.475.08.796.304.32.22.514.62.198.4.198.88 0 .82-.523 1.392-.523.567-1.89.567h-1.652v2.62zm.853-3.38h1.665q.827 0 1.174-.307t.347-.866q0-.404-.21-.69-.2-.29-.54-.382-.22-.057-.8-.057h-1.65z"/>
    <path d="M209.01 105.13v.6h-5.72v-.6z" fill-rule="evenodd" shape-rendering="geometricPrecision" stroke-width="0"/>
    <path d="M181.78 105.81q0-1.604.86-2.51.863-.91 2.225-.91.892 0 1.608.428.717.426 1.09 1.19.378.76.378 1.728 0 .98-.39 1.753-.39.77-1.12 1.17-.72.39-1.56.39-.91 0-1.62-.44-.717-.44-1.086-1.2-.37-.76-.37-1.61zm.88.013q0 1.165.623 1.837.628.668 1.573.668.963 0 1.582-.676.624-.677.624-1.92 0-.787-.268-1.372-.263-.59-.778-.91-.51-.325-1.147-.325-.91 0-1.56.624-.65.62-.65 2.07z"/>
    <path d="M195.41 105.13v.6h-5.82v-.6z" fill-rule="evenodd" shape-rendering="geometricPrecision" stroke-width="0"/>
    <path d="M168.14 108.95v-6.442h2.43q.642 0 .98.06.475.08.796.304.32.22.514.62.198.4.198.88 0 .82-.523 1.392-.523.567-1.89.567h-1.652v2.62zm.853-3.38h1.665q.827 0 1.174-.307t.347-.866q0-.404-.21-.69-.2-.29-.54-.382-.22-.057-.8-.057h-1.65z"/>
    <path d="M180.21 105.13v.6h-5.72v-.6z" fill-rule="evenodd" shape-rendering="geometricPrecision" stroke-width="0"/>
    <path d="M152.98 105.81q0-1.604.86-2.51.863-.91 2.225-.91.892 0 1.608.428.717.426 1.09 1.19.378.76.378 1.728 0 .98-.39 1.753-.39.77-1.12 1.17-.72.39-1.56.39-.91 0-1.62-.44-.717-.44-1.086-1.2-.37-.76-.37-1.61zm.88.013q0 1.165.623 1.837.628.668 1.573.668.963 0 1.582-.676.624-.677.624-1.92 0-.787-.268-1.372-.263-.59-.778-.91-.51-.325-1.147-.325-.91 0-1.56.624-.65.62-.65 2.07z"/>
    <path d="M166.61 105.13v.6h-5.82v-.6z" fill-rule="evenodd" shape-rendering="geometricPrecision" stroke-width="0"/>
    <path d="M196.18 91.412q0-1.604.86-2.51.863-.91 2.225-.91.892 0 1.608.427.717.42 1.09 1.19.378.76.378 1.72 0 .98-.39 1.75t-1.12 1.17q-.72.396-1.56.396-.91 0-1.62-.44-.717-.44-1.086-1.2-.37-.76-.37-1.61zm.88.013q0 1.165.623 1.837.628.668 1.573.668.963 0 1.582-.677.624-.676.624-1.92 0-.787-.268-1.37-.263-.59-.778-.91-.51-.326-1.147-.326-.91 0-1.56.624-.65.62-.65 2.08z"/>
    <path d="M200.25 101.01h.6v-4.72h-.6zm-2.6 0h.6v-4.72h-.6z" fill-rule="evenodd" shape-rendering="geometricPrecision" stroke-width="0"/>
    <path d="M196.18 120.21q0-1.604.86-2.51.863-.91 2.225-.91.892 0 1.608.428.717.426 1.09 1.19.378.76.378 1.728 0 .98-.39 1.753-.39.77-1.12 1.17-.72.39-1.56.39-.91 0-1.62-.44-.717-.44-1.086-1.2-.37-.76-.37-1.61zm.88.013q0 1.165.623 1.837.628.668 1.573.668.963 0 1.582-.676.624-.677.624-1.92 0-.787-.268-1.372-.263-.59-.778-.91-.51-.325-1.147-.325-.91 0-1.56.624-.65.62-.65 2.07z"/>
    <path d="M198.95 110.59h.6v4.62h-.6z" fill-rule="evenodd" shape-rendering="geometricPrecision" stroke-width="0"/>
    <path d="M167.38 91.412q0-1.604.86-2.51.863-.91 2.225-.91.892 0 1.608.427.717.42 1.09 1.19.378.76.378 1.72 0 .98-.39 1.75t-1.12 1.17q-.72.396-1.56.396-.91 0-1.62-.44-.717-.44-1.086-1.2-.37-.76-.37-1.61zm.88.013q0 1.165.623 1.837.628.668 1.573.668.963 0 1.582-.677.624-.676.624-1.92 0-.787-.268-1.37-.263-.59-.778-.91-.51-.326-1.147-.326-.91 0-1.56.624-.65.62-.65 2.08z"/>
    <path d="M171.45 101.01h.6v-4.72h-.6zm-2.6 0h.6v-4.72h-.6z" fill-rule="evenodd" shape-rendering="geometricPrecision" stroke-width="0"/>
    <path d="M167.38 120.21q0-1.604.86-2.51.863-.91 2.225-.91.892 0 1.608.428.717.426 1.09 1.19.378.76.378 1.728 0 .98-.39 1.753-.39.77-1.12 1.17-.72.39-1.56.39-.91 0-1.62-.44-.717-.44-1.086-1.2-.37-.76-.37-1.61zm.88.013q0 1.165.623 1.837.628.668 1.573.668.963 0 1.582-.676.624-.677.624-1.92 0-.787-.268-1.372-.263-.59-.778-.91-.51-.325-1.147-.325-.91 0-1.56.624-.65.62-.65 2.07z"/>
    <path d="M170.15 110.59h.6v4.62h-.6z" fill-rule="evenodd" shape-rendering="geometricPrecision" stroke-width="0"/>
    <path d="M203.31 118.13h3.6m-32.6 0h3.6" stroke="#000" stroke-width=".48"/>
  </g>
  <path d="M255.45 127l-.3.07 7.2 12.78v8.33h.6v-8.62l13.79-.01v8.63h.6v-8.33l7.2-12.78-.3-.07-.46.11-7.86 10.24h-12.15l-7.86-10.24z" fill-rule="evenodd" shape-rendering="geometricPrecision" stroke-width="0"/>
</svg>